<svg width="16" height="16" viewBox="0 0 16 16" fill="none" xmlns="http://www.w3.org/2000/svg">
<g id="fi-br-star" clip-path="url(#clip0_1_266)">
<path id="Vector" d="M4.56801 15.6249C4.05922 15.6226 3.56421 15.4592 3.15401 15.1582C2.73482 14.8633 2.42202 14.441 2.26215 13.954C2.10227 13.4671 2.10386 12.9415 2.26668 12.4555L3.04668 10.0429L0.993348 8.54153C0.581643 8.24073 0.275627 7.81742 0.119082 7.33216C-0.037462 6.8469 -0.0365127 6.32457 0.121794 5.83988C0.280101 5.3552 0.587654 4.933 1.00045 4.6337C1.41324 4.33439 1.91013 4.17333 2.42001 4.17353H4.93335L5.69668 1.79353C5.85334 1.30616 6.16064 0.88108 6.57433 0.579519C6.98802 0.277959 7.48675 0.115479 7.99868 0.115479C8.51062 0.115479 9.00934 0.277959 9.42303 0.579519C9.83672 0.88108 10.144 1.30616 10.3007 1.79353L11.0667 4.17353H13.58C14.0898 4.17347 14.5866 4.33464 14.9993 4.63399C15.412 4.93334 15.7194 5.35554 15.8777 5.8402C16.0359 6.32485 16.0368 6.84713 15.8802 7.33232C15.7237 7.81751 15.4177 8.24077 15.006 8.54153L12.9533 10.0429L13.7333 12.4555C13.8906 12.9422 13.8895 13.4662 13.7301 13.9522C13.5707 14.4382 13.2612 14.8611 12.8463 15.1601C12.4313 15.4591 11.9322 15.6187 11.4208 15.6161C10.9093 15.6135 10.4119 15.4487 10 15.1455L8.00001 13.6749L6.00001 15.1462C5.58619 15.4549 5.08427 15.6226 4.56801 15.6249ZM2.42001 6.17353C2.33202 6.17352 2.24627 6.20133 2.17502 6.25298C2.10378 6.30462 2.05068 6.37747 2.02332 6.46111C1.99596 6.54474 1.99574 6.63488 2.02268 6.71865C2.04963 6.80242 2.10236 6.87553 2.17335 6.92753L4.81068 8.85487C4.9805 8.97904 5.10684 9.15361 5.17171 9.35373C5.23659 9.55386 5.23669 9.76934 5.17201 9.96953L4.17201 13.0695C4.14426 13.1536 4.14398 13.2444 4.1712 13.3286C4.19843 13.4129 4.25174 13.4863 4.32344 13.5383C4.39515 13.5902 4.48152 13.618 4.57006 13.6176C4.65861 13.6173 4.74475 13.5888 4.81601 13.5362L7.40868 11.6289C7.58044 11.5025 7.7881 11.4343 8.00135 11.4343C8.21459 11.4343 8.42226 11.5025 8.59401 11.6289L11.1867 13.5355C11.2579 13.5886 11.3441 13.6175 11.4329 13.6181C11.5216 13.6187 11.6083 13.5909 11.6802 13.5388C11.752 13.4868 11.8054 13.4131 11.8325 13.3285C11.8596 13.244 11.8589 13.153 11.8307 13.0689L10.8307 9.96887C10.766 9.76868 10.7661 9.55319 10.831 9.35307C10.8959 9.15294 11.0222 8.97837 11.192 8.8542L13.8287 6.92687C13.8996 6.8749 13.9523 6.80185 13.9793 6.71814C14.0063 6.63444 14.0061 6.54436 13.9788 6.46076C13.9515 6.37715 13.8985 6.3043 13.8274 6.2526C13.7563 6.2009 13.6706 6.173 13.5827 6.17287H10.3333C10.1215 6.17281 9.91524 6.10552 9.74414 5.98067C9.57305 5.85583 9.44602 5.67988 9.38135 5.4782L8.40001 2.4042C8.37299 2.32007 8.31995 2.24668 8.24854 2.19462C8.17714 2.14256 8.09105 2.11451 8.00268 2.11451C7.91431 2.11451 7.82822 2.14256 7.75682 2.19462C7.68541 2.24668 7.63238 2.32007 7.60535 2.4042L6.61668 5.47887C6.55212 5.68023 6.42538 5.85594 6.25469 5.98075C6.084 6.10556 5.87814 6.17306 5.66668 6.17353H2.42001Z" fill="#B0B4B7"/>
</g>
<defs>
<clipPath id="clip0_1_266">
<rect width="16" height="16" fill="white"/>
</clipPath>
</defs>
</svg>
