<svg width="16" height="16" viewBox="0 0 16 16" fill="none" xmlns="http://www.w3.org/2000/svg">
<g id="fi-sr-star" clip-path="url(#clip0_1_263)">
<path id="Vector" d="M0.884528 8.26684L3.25786 10.0002L2.35653 12.7915C2.21087 13.2244 2.20902 13.6928 2.35127 14.1269C2.49351 14.561 2.77223 14.9374 3.14586 15.2002C3.5131 15.4714 3.95812 15.6166 4.41463 15.6144C4.87114 15.6121 5.31469 15.4624 5.6792 15.1875L7.99986 13.4795L10.3212 15.1855C10.6878 15.4551 11.1304 15.6016 11.5854 15.6038C12.0405 15.606 12.4845 15.4639 12.8537 15.1978C13.2229 14.9318 13.4982 14.5555 13.6401 14.1232C13.7819 13.6908 13.783 13.2246 13.6432 12.7915L12.7419 10.0002L15.1152 8.26684C15.4813 7.99918 15.7534 7.62267 15.8928 7.1911C16.0321 6.75953 16.0315 6.29496 15.891 5.86377C15.7505 5.43257 15.4774 5.05679 15.1105 4.79011C14.7437 4.52343 14.302 4.37949 13.8485 4.37884H10.9332L10.0485 1.62151C9.90941 1.18748 9.63604 0.808849 9.26784 0.540217C8.89964 0.271584 8.45564 0.126831 7.99986 0.126831C7.54408 0.126831 7.10008 0.271584 6.73188 0.540217C6.36368 0.808849 6.09031 1.18748 5.9512 1.62151L5.06653 4.37884H2.15386C1.70036 4.37949 1.25866 4.52343 0.891848 4.79011C0.52504 5.05679 0.251889 5.43257 0.111409 5.86377C-0.0290704 6.29496 -0.0296922 6.75953 0.109633 7.1911C0.248957 7.62267 0.521102 7.99918 0.887195 8.26684H0.884528Z" fill="#FFE605"/>
</g>
<defs>
<clipPath id="clip0_1_263">
<rect width="16" height="16" fill="white"/>
</clipPath>
</defs>
</svg>
