<svg width="71" height="24" viewBox="0 0 71 24" fill="none" xmlns="http://www.w3.org/2000/svg">
<g id="oodi">
<path d="M15.5 0.5C18.2627 0.5 14.448 1.78434 17.948 5.22012C19.9827 7.21746 21 9.70012 21 12.6681C21 15.6175 20.0293 18.1375 18.088 20.2281C16.1467 22.3001 13.7573 23.3361 10.92 23.3361C8.08268 23.3361 5.66535 22.3095 3.66801 20.2561C1.68935 18.2028 0.700012 15.7575 0.700012 12.9201C0.700012 11.3708 0.980012 9.92412 1.54001 8.58012C2.10001 7.21746 2.84668 6.07879 3.78001 5.16412C4.71335 4.24945 5.78668 3.53079 7.00001 3.00812C8.21335 2.48545 14.212 0.5 15.5 0.5ZM5.65601 12.7801C5.65601 14.4415 6.18801 15.7948 7.25201 16.8401C8.33468 17.8668 9.53868 18.3801 10.864 18.3801C12.1893 18.3801 13.384 17.8761 14.448 16.8681C15.512 15.8601 16.044 14.5068 16.044 12.8081C16.044 11.1095 15.5027 9.74679 14.42 8.72012C13.356 7.69346 12.1613 7.18012 10.836 7.18012C9.51068 7.18012 8.31601 7.70279 7.25201 8.74812C6.18801 9.77479 5.65601 11.1188 5.65601 12.7801Z" fill="black"/>
<path d="M33.0229 2.22412C35.7856 2.22412 38.1843 3.22279 40.2189 5.22012C42.2536 7.21746 43.271 9.70012 43.271 12.6681C43.271 15.6175 42.3003 18.1375 40.359 20.2281C38.4176 22.3001 36.0283 23.3361 33.1909 23.3361C30.3536 23.3361 27.9363 22.3095 25.9389 20.2561C23.9603 18.2028 22.9709 15.7575 22.9709 12.9201C22.9709 11.3708 23.2509 9.92412 23.8109 8.58012C24.3709 7.21746 25.1176 6.07879 26.0509 5.16412C26.9843 4.24945 28.0576 3.53079 29.2709 3.00812C30.4843 2.48545 31.7349 2.22412 33.0229 2.22412ZM27.9269 12.7801C27.9269 14.4415 28.459 15.7948 29.5229 16.8401C30.6056 17.8668 31.8096 18.3801 33.1349 18.3801C34.4603 18.3801 35.6549 17.8761 36.7189 16.8681C37.7829 15.8601 38.3149 14.5068 38.3149 12.8081C38.3149 11.1095 37.7736 9.74679 36.691 8.72012C35.627 7.69346 34.4323 7.18012 33.1069 7.18012C31.7816 7.18012 30.587 7.70279 29.5229 8.74812C28.459 9.77479 27.9269 11.1188 27.9269 12.7801Z" fill="black"/>
<path d="M48.1539 2.44812L53.3339 2.47612C56.0406 2.47612 58.4206 3.45612 60.4739 5.41612C62.5272 7.35745 63.5539 9.75612 63.5539 12.6121C63.5539 15.4495 62.5459 17.8855 60.5299 19.9201C58.5326 21.9548 56.1059 22.9721 53.2499 22.9721H48.1259C46.9872 22.9721 46.2779 22.7388 45.9979 22.2721C45.7739 21.8801 45.6619 21.2828 45.6619 20.4801V4.91212C45.6619 4.46412 45.6712 4.13745 45.6899 3.93212C45.7272 3.72679 45.8206 3.48412 45.9699 3.20412C46.2312 2.70012 46.9592 2.44812 48.1539 2.44812ZM53.3339 18.0161C54.6779 18.0161 55.8912 17.5215 56.9739 16.5321C58.0566 15.5241 58.5979 14.2641 58.5979 12.7521C58.5979 11.2401 58.0659 9.98012 57.0019 8.97212C55.9566 7.94545 54.7246 7.43212 53.3059 7.43212H50.6179V18.0161H53.3339Z" fill="black"/>
<path d="M65.9367 4.94012C65.9367 4.51079 65.9461 4.19345 65.9647 3.98812C66.0021 3.76412 66.0954 3.51212 66.2447 3.23212C66.5061 2.72812 67.2341 2.47612 68.4287 2.47612C69.7354 2.47612 70.5101 2.82145 70.7527 3.51212C70.8461 3.82945 70.8927 4.31479 70.8927 4.96812V20.5361C70.8927 20.9841 70.8741 21.3108 70.8367 21.5161C70.8181 21.7215 70.7341 21.9641 70.5847 22.2441C70.3234 22.7481 69.5954 23.0001 68.4007 23.0001C67.0941 23.0001 66.3287 22.6455 66.1047 21.9361C65.9927 21.6375 65.9367 21.1615 65.9367 20.5081V4.94012Z" fill="black"/>
</g>
</svg>
